<svg width="7" height="6" viewBox="0 0 7 6" fill="none" xmlns="http://www.w3.org/2000/svg">
<path d="M3.26028 5.20767C3.28703 5.24653 3.32284 5.2783 3.3646 5.30026C3.40637 5.32221 3.45284 5.33368 3.50003 5.33368C3.54721 5.33368 3.59368 5.32221 3.63545 5.30026C3.67722 5.2783 3.71302 5.24653 3.73978 5.20767L6.36478 1.416C6.39516 1.37227 6.41298 1.32104 6.41629 1.26789C6.41961 1.21474 6.4083 1.1617 6.38358 1.11453C6.35887 1.06736 6.3217 1.02786 6.27612 1.00033C6.23054 0.972802 6.17828 0.958291 6.12503 0.958374H0.875027C0.821898 0.958594 0.769834 0.973292 0.724434 1.00089C0.679034 1.02849 0.642016 1.06794 0.61736 1.115C0.592704 1.16206 0.581344 1.21495 0.584501 1.26799C0.587658 1.32102 0.605213 1.37219 0.635277 1.416L3.26028 5.20767Z" fill="white"/>
</svg>
