<svg width="70" height="70" viewBox="0 0 70 70" fill="none" xmlns="http://www.w3.org/2000/svg">
<g clip-path="url(#clip0)">
<path d="M65.3336 14C62.7599 14 60.667 16.093 60.667 18.6666C60.667 21.2402 62.76 23.3333 65.3336 23.3333C67.9072 23.3333 70.0002 21.2404 70.0002 18.6666C70.0002 16.093 67.9072 14 65.3336 14ZM65.3336 21C64.0468 21 63.0002 19.9536 63.0002 18.6666C63.0002 17.3798 64.0467 16.3332 65.3336 16.3332C66.6205 16.3332 67.667 17.3797 67.667 18.6666C67.6669 19.9536 66.6204 21 65.3336 21Z" fill="white"/>
<path d="M4.66662 52.5C2.09303 52.5 0 54.593 0 57.1666C0 59.7402 2.09303 61.8332 4.66662 61.8332C7.24035 61.8332 9.33324 59.7402 9.33324 57.1666C9.33324 54.593 7.24035 52.5 4.66662 52.5ZM4.66662 59.5C3.37982 59.5 2.33324 58.4536 2.33324 57.1666C2.33324 55.8797 3.37969 54.8332 4.66662 54.8332C5.95342 54.8332 7 55.8797 7 57.1666C7 58.4536 5.95355 59.5 4.66662 59.5Z" fill="white"/>
<path d="M63.0715 15.4746L53.0066 10.6154C52.4256 10.3342 51.7291 10.5792 51.4491 11.1592C51.1691 11.739 51.4129 12.4367 51.9929 12.7167L62.0577 17.5758C62.2211 17.6551 62.3937 17.6924 62.564 17.6924C62.9979 17.6924 63.4145 17.4498 63.615 17.0321C63.895 16.4523 63.6513 15.7546 63.0715 15.4746Z" fill="white"/>
<path d="M52.4996 60.6667C49.9259 60.6667 47.833 62.7598 47.833 65.3334C47.833 67.907 49.9259 70.0001 52.4996 70.0001C55.0734 70.0001 57.1662 67.9071 57.1662 65.3335C57.1662 62.7599 55.0734 60.6667 52.4996 60.6667ZM52.4996 67.6668C51.2128 67.6668 50.1663 66.6203 50.1663 65.3334C50.1663 64.0464 51.2128 63.0001 52.4996 63.0001C53.7864 63.0001 54.833 64.0466 54.833 65.3335C54.833 66.6204 53.7864 67.6668 52.4996 67.6668Z" fill="white"/>
<path d="M50.2375 62.1415L40.1727 57.2824C39.5916 57.0012 38.8952 57.2451 38.6152 57.8261C38.3352 58.4059 38.5789 59.1036 39.1589 59.3836L49.2237 64.2427C49.3871 64.322 49.5598 64.3594 49.73 64.3594C50.1639 64.3594 50.5805 64.1167 50.7812 63.699C51.0611 63.119 50.8173 62.4215 50.2375 62.1415Z" fill="white"/>
<path d="M34.9996 31.5C32.4259 31.5 30.333 33.593 30.333 36.1666C30.333 38.7404 32.426 40.8332 34.9996 40.8332C37.5734 40.8332 39.6662 38.7402 39.6662 36.1666C39.6662 33.593 37.5734 31.5 34.9996 31.5ZM34.9996 38.5C33.7128 38.5 32.6662 37.4536 32.6662 36.1666C32.6662 34.8798 33.7127 33.8332 34.9996 33.8332C36.2864 33.8332 37.333 34.8797 37.333 36.1666C37.333 37.4536 36.2864 38.5 34.9996 38.5Z" fill="white"/>
<path d="M32.9489 33.1053L25.2175 27.0794C24.7087 26.6862 23.9762 26.7737 23.5794 27.2825C23.1839 27.7912 23.2737 28.5237 23.7825 28.9205L31.5139 34.9464C31.7275 35.1121 31.9794 35.1926 32.2303 35.1926C32.578 35.1926 32.921 35.0386 33.1519 34.7435C33.5475 34.2346 33.4576 33.5019 32.9489 33.1053Z" fill="white"/>
<path d="M56.0004 30.3335C48.9245 30.3335 43.167 36.091 43.167 43.1669C43.167 50.2428 48.9245 56.0003 56.0004 56.0003C63.0763 56.0003 68.8338 50.2428 68.8338 43.1669C68.8338 36.091 63.0763 30.3335 56.0004 30.3335ZM56.0004 53.6667C50.2102 53.6667 45.5004 48.9569 45.5004 43.1667C45.5004 37.3766 50.2102 32.6667 56.0004 32.6667C61.7905 32.6667 66.5004 37.3766 66.5004 43.1667C66.5004 48.9569 61.7905 53.6667 56.0004 53.6667Z" fill="white"/>
<path d="M56.0001 35C53.4264 35 51.3335 37.093 51.3335 39.6666C51.3335 42.2404 53.4265 44.3332 56.0001 44.3332C58.5738 44.3332 60.6667 42.2402 60.6667 39.6666C60.6667 37.093 58.5738 35 56.0001 35ZM56.0001 42C54.7133 42 53.6667 40.9536 53.6667 39.6666C53.6667 38.3798 54.7132 37.3332 56.0001 37.3332C57.2869 37.3332 58.3335 38.3797 58.3335 39.6666C58.3335 40.9536 57.2869 42 56.0001 42Z" fill="white"/>
<path d="M59.3845 46.6665H52.6155C50.6218 46.6665 49 48.2451 49 50.184V53.2594C49 53.6758 49.2216 54.0608 49.5821 54.2697C51.5375 55.4013 53.7564 55.9999 56 55.9999C58.2436 55.9999 60.4625 55.4013 62.4178 54.2697C62.7784 54.062 63 53.6758 63 53.2606V50.1852C63 48.2451 61.3784 46.6665 59.3845 46.6665ZM60.6666 52.564C57.7628 54.0106 54.2371 54.0106 51.3332 52.564V50.1852C51.3332 49.5319 51.9084 48.9999 52.6154 48.9999H59.3843C60.0913 48.9999 60.6665 49.5319 60.6665 50.1852V52.564H60.6666Z" fill="white"/>
<path d="M27.9999 44.3333C20.924 44.3333 15.1665 50.0907 15.1665 57.1666C15.1665 64.2425 20.924 69.9998 27.9999 69.9998C35.0757 69.9998 40.8332 64.2423 40.8332 57.1665C40.8332 50.0906 35.0757 44.3333 27.9999 44.3333ZM27.9999 67.6665C22.2097 67.6665 17.4999 62.9566 17.4999 57.1665C17.4999 51.3763 22.2097 46.6665 27.9999 46.6665C33.79 46.6665 38.4999 51.3763 38.4999 57.1665C38.4999 62.9566 33.79 67.6665 27.9999 67.6665Z" fill="white"/>
<path d="M28.0001 49C25.4264 49 23.3335 51.093 23.3335 53.6666C23.3335 56.2404 25.4265 58.3332 28.0001 58.3332C30.5737 58.3332 32.6667 56.2402 32.6667 53.6666C32.6667 51.093 30.5738 49 28.0001 49ZM28.0001 56C26.7133 56 25.6667 54.9536 25.6667 53.6666C25.6667 52.3798 26.7132 51.3332 28.0001 51.3332C29.2869 51.3332 30.3335 52.3797 30.3335 53.6666C30.3335 54.9536 29.2869 56 28.0001 56Z" fill="white"/>
<path d="M31.3845 60.6667H24.6155C22.6218 60.6667 21 62.2453 21 64.1842V67.2596C21 67.676 21.2216 68.061 21.5821 68.27C23.5375 69.4016 25.7564 70.0001 28 70.0001C30.2436 70.0001 32.4625 69.4016 34.4179 68.27C34.7784 68.0623 35 67.6762 35 67.2608V64.1855C35 62.2453 33.3784 60.6667 31.3845 60.6667ZM32.6666 66.5642C29.7627 68.0109 26.2371 68.0109 23.3332 66.5642V64.1855C23.3332 63.5321 23.9084 63.0001 24.6154 63.0001H31.3843C32.0913 63.0001 32.6665 63.5321 32.6665 64.1855V66.5642H32.6666Z" fill="white"/>
<path d="M12.8334 15.1665C5.7575 15.1665 0 20.924 0 27.9999C0 35.0757 5.7575 40.8332 12.8334 40.8332C19.9093 40.8332 25.6668 35.0757 25.6668 27.9999C25.6666 20.924 19.9091 15.1665 12.8334 15.1665ZM12.8334 38.4999C7.0432 38.4999 2.33338 33.79 2.33338 27.9999C2.33338 22.2097 7.0432 17.4999 12.8334 17.4999C18.6236 17.4999 23.3334 22.2097 23.3334 27.9999C23.3334 33.79 18.6236 38.4999 12.8334 38.4999Z" fill="white"/>
<path d="M12.8336 19.8335C10.2599 19.8335 8.16699 21.9265 8.16699 24.5001C8.16699 27.0737 10.26 29.1667 12.8336 29.1667C15.4073 29.1667 17.5002 27.0737 17.5002 24.5001C17.5002 21.9265 15.4072 19.8335 12.8336 19.8335ZM12.8336 26.8335C11.5468 26.8335 10.5002 25.7871 10.5002 24.5001C10.5002 23.2132 11.5467 22.1667 12.8336 22.1667C14.1204 22.1667 15.167 23.2132 15.167 24.5001C15.167 25.7871 14.1204 26.8335 12.8336 26.8335Z" fill="white"/>
<path d="M16.218 31.5H9.44903C7.45525 31.5 5.8335 33.0786 5.8335 35.0175V38.0929C5.8335 38.5093 6.05512 38.8943 6.41564 39.1032C8.371 40.2348 10.5899 40.8334 12.8335 40.8334C15.0771 40.8334 17.296 40.2348 19.2514 39.1032C19.6119 38.8955 19.8335 38.5093 19.8335 38.0941V35.0187C19.8335 33.0786 18.2117 31.5 16.218 31.5ZM17.5001 37.3975C14.5964 38.8441 11.0706 38.8441 8.16674 37.3975V35.0187C8.16674 34.3654 8.74192 33.8334 9.44889 33.8334H16.2178C16.9248 33.8334 17.5 34.3654 17.5 35.0187V37.3975H17.5001Z" fill="white"/>
<path d="M40.8334 0C33.7575 0 28 5.7575 28 12.8334C28 19.9093 33.7575 25.6668 40.8334 25.6668C47.9092 25.6668 53.6667 19.9093 53.6667 12.8334C53.6666 5.7575 47.9091 0 40.8334 0ZM40.8334 23.3334C35.0432 23.3334 30.3334 18.6236 30.3334 12.8334C30.3334 7.0432 35.0432 2.33338 40.8334 2.33338C46.6235 2.33338 51.3334 7.0432 51.3334 12.8334C51.3334 18.6236 46.6235 23.3334 40.8334 23.3334Z" fill="white"/>
<path d="M40.8331 4.6665C38.2594 4.6665 36.1665 6.75953 36.1665 9.33313C36.1665 11.9067 38.2595 13.9997 40.8331 13.9997C43.4067 13.9997 45.4997 11.9069 45.4997 9.33326C45.4997 6.75967 43.4067 4.6665 40.8331 4.6665ZM40.8331 11.6665C39.5463 11.6665 38.4997 10.6201 38.4997 9.33313C38.4997 8.04633 39.5462 6.99975 40.8331 6.99975C42.1201 6.99975 43.1665 8.04619 43.1665 9.33313C43.1664 10.6201 42.1199 11.6665 40.8331 11.6665Z" fill="white"/>
<path d="M44.218 16.3333H37.449C35.4553 16.3333 33.8335 17.9118 33.8335 19.8507V22.9261C33.8335 23.3425 34.0551 23.7275 34.4156 23.9364C36.371 25.0681 38.5899 25.6666 40.8335 25.6666C43.077 25.6666 45.296 25.0681 47.2513 23.9364C47.6119 23.7288 47.8335 23.3425 47.8335 22.9273V19.852C47.8335 17.9117 46.2117 16.3333 44.218 16.3333ZM45.5001 22.2307C42.5963 23.6774 39.0706 23.6774 36.1667 22.2307V19.852C36.1667 19.1986 36.7419 18.6666 37.4489 18.6666H44.2178C44.9248 18.6666 45.5 19.1986 45.5 19.852V22.2307H45.5001Z" fill="white"/>
<path d="M30.0545 12.0736C29.6358 11.5859 28.8995 11.5275 28.4095 11.9465L20.3245 18.8648C19.8345 19.2836 19.7774 20.0198 20.1962 20.5098C20.4272 20.7793 20.7538 20.9182 21.0828 20.9182C21.3512 20.9182 21.6206 20.8261 21.8412 20.637L29.9262 13.7186C30.4163 13.2998 30.4735 12.5636 30.0545 12.0736Z" fill="white"/>
<path d="M55.7665 30.8013L48.7665 21.4679C48.3803 20.9511 47.6488 20.8496 47.1331 21.2346C46.6174 21.6208 46.5136 22.3522 46.8997 22.8667L53.8997 32.2001C54.1296 32.5058 54.4796 32.6667 54.8342 32.6667C55.0769 32.6667 55.3231 32.5908 55.5331 32.4333C56.0488 32.0472 56.1527 31.3158 55.7665 30.8013Z" fill="white"/>
<path d="M46.1917 47.0247C45.8054 46.509 45.074 46.4052 44.5583 46.7913L38.0413 51.6785C37.5256 52.0647 37.4219 52.7962 37.8079 53.3106C38.0378 53.6164 38.3878 53.7773 38.7424 53.7773C38.9862 53.7773 39.2312 53.7003 39.4413 53.5439L45.9583 48.6567C46.474 48.2708 46.5779 47.5392 46.1917 47.0247Z" fill="white"/>
<path d="M16.3334 56H8.16662C7.52268 56 7 56.5214 7 57.1666C7 57.8118 7.52268 58.3332 8.16662 58.3332H16.3332C16.9772 58.3332 17.4999 57.8118 17.4999 57.1666C17.4999 56.5214 16.9773 56 16.3334 56Z" fill="white"/>
<path d="M12.8337 0C10.26 0 8.16699 2.09303 8.16699 4.66662C8.16699 7.24035 10.26 9.33324 12.8336 9.33324C15.4073 9.33324 17.5002 7.24021 17.5002 4.66662C17.5004 2.09303 15.4073 0 12.8337 0ZM12.8337 7C11.547 7 10.5004 5.95355 10.5004 4.66662C10.5004 3.37982 11.5468 2.33324 12.8337 2.33324C14.1205 2.33324 15.1671 3.37969 15.1671 4.66662C15.167 5.95355 14.1205 7 12.8337 7Z" fill="white"/>
<path d="M12.8336 7C12.1897 7 11.667 7.52145 11.667 8.16662V16.3332C11.667 16.9784 12.1897 17.4999 12.8336 17.4999C13.4776 17.4999 14.0002 16.9784 14.0002 16.3332V8.16662C14.0002 7.52145 13.4776 7 12.8336 7Z" fill="white"/>
</g>
<defs>
<clipPath id="clip0">
<rect width="70" height="70" fill="white"/>
</clipPath>
</defs>
</svg>
