<svg width="75" height="75" viewBox="0 0 75 75" fill="none" xmlns="http://www.w3.org/2000/svg">
<g clip-path="url(#clip0)">
<path d="M65.1875 29.0126L63.8181 30.7481C69.5193 35.2462 72.7893 41.9867 72.7893 49.2412C72.7893 62.2261 62.2253 72.7902 49.24 72.7902C36.6185 72.7902 26.2895 62.93 25.7251 50.3423L25.7241 50.3227C25.7021 49.9721 25.691 49.6081 25.691 49.2412C25.691 47.3293 25.9209 45.4405 26.3755 43.6217C28.4645 35.0737 35.0724 28.4658 43.6263 26.3753C45.4397 25.9219 47.3284 25.6922 49.2402 25.6922C49.263 25.6922 49.2852 25.6931 49.3079 25.6933C49.308 25.716 49.3089 25.7381 49.3089 25.7609H50.8971C54.6752 26.0227 58.3557 27.1982 61.575 29.1805L62.734 27.2981C59.3158 25.1935 55.4228 23.9195 51.4187 23.5839C50.917 17.5301 48.2973 11.8671 43.9754 7.54535C39.1108 2.68002 32.6415 0.000976562 25.7598 0.000976562C18.8781 0.000976562 12.4088 2.68017 7.54408 7.54505C2.67919 12.4096 0 18.8788 0 25.7606C0 32.7701 2.89365 39.5222 7.94281 44.3383L8.93099 45.3265L8.97611 45.2814C13.0626 48.8123 18.1818 50.9676 23.5817 51.4304C24.101 57.6827 26.862 63.4819 31.4245 67.8506C36.2396 72.4615 42.5667 75.0007 49.2402 75.0007C63.4442 75.0007 75 63.445 75 49.241C74.9999 41.3055 71.4233 33.9325 65.1875 29.0126ZM49.191 23.4821C47.5638 23.4852 45.9515 23.6425 44.3828 23.9463C44.0046 19.995 42.3893 16.2997 39.7452 13.3382L43.1756 9.90769C46.6067 13.6741 48.7096 18.4219 49.191 23.4821ZM26.8652 2.23764C32.3743 2.49033 37.5393 4.62943 41.6125 8.34486L38.1821 11.7751C35.0334 8.96199 31.0832 7.32254 26.8652 7.07821V2.23764ZM24.6544 2.23764V7.07836C20.4353 7.32254 16.4841 8.96273 13.3372 11.7749L9.90716 8.34486C13.9803 4.62943 19.1455 2.49033 24.6544 2.23764ZM8.34403 9.90799L11.7742 13.3382C8.96116 16.487 7.32171 20.4373 7.07738 24.6553H2.23667C2.4895 19.1462 4.62846 13.9813 8.34403 9.90799ZM8.92645 42.2049C4.90385 38.1053 2.51103 32.6173 2.23813 26.8659H7.07811C7.34442 31.3395 9.2181 35.5858 12.3382 38.7929L8.92645 42.2049ZM23.4808 49.2018C18.7069 48.7332 14.1871 46.8163 10.5441 43.7134L13.9711 40.2866C16.3049 42.1891 19.0655 43.5015 22.0185 44.099L22.457 41.9322C19.5517 41.3442 16.8555 39.9722 14.6568 37.9617C11.2238 34.847 9.25486 30.3999 9.25486 25.7603C9.25486 21.3503 10.974 17.2088 14.0982 14.096C17.2082 10.9745 21.3498 9.2554 25.7598 9.2554C30.1699 9.2554 34.3114 10.9745 37.4243 14.0989C40.2264 16.8903 41.9057 20.5432 42.2084 24.4634C37.9975 25.6546 34.1487 27.9125 31.0302 31.0308C27.6938 34.3672 25.3417 38.5393 24.2295 43.0909C23.7353 45.0669 23.4839 47.1227 23.4808 49.2018Z" fill="white"/>
<path d="M46.8921 57.3897H48.1348V59.8064H50.3454V57.3897H51.588C53.4923 57.3897 55.0415 55.8404 55.0415 53.9362V51.5882C55.0415 49.684 53.4923 48.1348 51.588 48.1348H46.892C46.2067 48.1348 45.6492 47.5773 45.6492 46.892V44.544C45.6492 43.8588 46.2067 43.3013 46.892 43.3013H51.588C52.2732 43.3013 52.8308 43.8588 52.8308 44.544V46.892H55.0413V44.544C55.0413 42.6397 53.4921 41.0905 51.5878 41.0905H50.3452V38.6738H48.1346V41.0905H46.892C44.9877 41.0905 43.4385 42.6397 43.4385 44.544V46.892C43.4385 48.7963 44.9877 50.3455 46.892 50.3455H51.588C52.2732 50.3455 52.8308 50.9031 52.8308 51.5882V53.9362C52.8308 54.6214 52.2732 55.1789 51.588 55.1789H46.892C46.2067 55.1789 45.6492 54.6214 45.6492 53.9362V51.5882H43.4386V53.9362C43.4386 55.8404 44.9878 57.3897 46.8921 57.3897Z" fill="white"/>
<path d="M29.3501 49.2401C29.3501 60.2074 38.2726 69.1297 49.2397 69.1297C60.2068 69.1297 69.1293 60.2072 69.1293 49.2401C69.1293 38.273 60.2068 29.3503 49.2397 29.3503C38.2726 29.3503 29.3501 38.273 29.3501 49.2401ZM66.9187 49.2401C66.9187 58.9885 58.9879 66.919 49.2399 66.919C39.4918 66.919 31.561 58.9882 31.561 49.2401C31.561 39.492 39.4918 31.5611 49.2399 31.5611C58.9879 31.5611 66.9187 39.492 66.9187 49.2401Z" fill="white"/>
<path d="M62.1548 48.1345H59.8066V50.3451H62.1548V48.1345Z" fill="white"/>
<path d="M38.6748 48.1345H36.3267V50.3451H38.6748V48.1345Z" fill="white"/>
<path d="M14.0889 25.7597H16.2995C16.2995 20.5431 20.5435 16.2989 25.7603 16.2989V14.0881C19.3246 14.0881 14.0889 19.3241 14.0889 25.7597Z" fill="white"/>
<path d="M16.2985 28.1074H14.0879V30.4554H16.2985V28.1074Z" fill="white"/>
</g>
<defs>
<clipPath id="clip0">
<rect width="75" height="75" fill="white"/>
</clipPath>
</defs>
</svg>
