<svg width="70" height="70" viewBox="0 0 70 70" fill="none" xmlns="http://www.w3.org/2000/svg">
<g clip-path="url(#clip0)">
<path d="M68.8895 37.3584C68.5723 36.5656 67.7002 36.2485 66.9867 36.5656C58.6623 40.2125 54.5397 38.4683 50.1793 36.6449C45.8189 34.8214 41.3792 32.9187 33.4512 36.5656C25.1268 40.2125 21.0042 38.4683 16.6438 36.6449C12.2834 34.8214 7.76446 32.9187 -0.163553 36.6449C-0.877075 36.962 -1.1942 37.8341 -0.877075 38.5476C-0.559954 39.2611 0.312127 39.5782 1.02565 39.2611C7.76446 36.0899 11.3321 37.5962 15.4546 39.3404C18.0709 40.4503 20.925 41.6395 24.6511 41.6395C27.3467 41.6395 30.5971 41.0053 34.5611 39.2611C41.3 36.0899 44.8676 37.5962 48.9901 39.3404C51.6064 40.4503 54.4605 41.6395 58.1866 41.6395C60.8822 41.6395 64.1326 41.0053 68.0966 39.2611C68.8102 38.944 69.2066 38.0719 68.8895 37.3584Z" fill="white"/>
<path d="M68.8102 49.9641C68.5723 49.2506 67.7002 48.8542 66.9867 49.1713C58.6623 52.8182 54.5397 51.074 50.1793 49.2506C45.8189 47.4272 41.3792 45.5244 33.4512 49.1713C25.1268 52.8182 21.0042 51.074 16.6438 49.2506C12.2834 47.4272 7.76446 45.5244 -0.163554 49.2506C-0.877075 49.5677 -1.1942 50.4398 -0.877075 51.1533C-0.559954 51.8668 0.312127 52.184 1.02565 51.8668C7.76446 48.6956 11.3321 50.202 15.4546 51.9461C18.0709 53.056 20.925 54.2453 24.6511 54.2453C27.3467 54.2453 30.5971 53.611 34.5611 51.8668C41.3 48.6956 44.8676 50.202 48.9901 51.9461C51.6064 53.056 54.4605 54.2453 58.1866 54.2453C60.8821 54.2453 64.1326 53.611 68.0966 51.8668C68.8102 51.5497 69.2066 50.6776 68.8102 49.9641Z" fill="white"/>
<path d="M68.8102 62.6489C68.5723 61.8561 67.7002 61.539 66.9867 61.8561C58.6623 65.503 54.5397 63.7588 50.1793 61.9354C45.8189 60.112 41.3792 58.2092 33.4512 61.8561C25.1268 65.503 21.0042 63.7588 16.6438 61.9354C12.2834 60.112 7.76446 58.2093 -0.163554 61.9354C-0.877075 62.2525 -1.1942 63.1246 -0.877075 63.8381C-0.559954 64.5516 0.312127 64.8688 1.02565 64.5516C7.76446 61.3804 11.3321 62.8868 15.4546 64.6309C18.0709 65.7408 20.925 66.93 24.6511 66.93C27.3467 66.93 30.5971 66.2958 34.5611 64.5516C41.3 61.3804 44.8676 62.8868 48.9901 64.6309C51.6064 65.7408 54.4605 66.93 58.1866 66.93C60.8821 66.93 64.1326 66.2958 68.0966 64.5516C68.8102 64.2345 69.2066 63.3624 68.8102 62.6489Z" fill="white"/>
<path d="M42.3335 11.4339L34.4055 3.50586C34.247 3.3473 34.0884 3.26802 33.9298 3.18874C33.6127 3.03018 33.137 3.03018 32.8199 3.18874C32.6614 3.26802 32.5028 3.3473 32.3442 3.50586L24.4162 11.4339C23.8613 11.9888 23.8613 12.9402 24.4162 13.4952C24.7333 13.8123 25.0505 13.8916 25.4469 13.8916C25.8433 13.8916 26.1604 13.733 26.4775 13.4952L31.9478 8.02483V23.9601C31.9478 24.7529 32.5821 25.3872 33.3749 25.3872C34.1677 25.3872 34.8019 24.7529 34.8019 23.9601V8.02483L40.2722 13.4952C40.5894 13.8123 40.9065 13.8916 41.3029 13.8916C41.6993 13.8916 42.0164 13.733 42.3335 13.4952C42.8885 12.9402 42.8885 11.9888 42.3335 11.4339Z" fill="white"/>
<path d="M42.3335 11.4339L34.4055 3.50586C34.247 3.3473 34.0884 3.26802 33.9298 3.18874C33.6127 3.03018 33.137 3.03018 32.8199 3.18874C32.6614 3.26802 32.5028 3.3473 32.3442 3.50586L24.4162 11.4339C23.8613 11.9888 23.8613 12.9402 24.4162 13.4952C24.7333 13.8123 25.0505 13.8916 25.4469 13.8916C25.8433 13.8916 26.1604 13.733 26.4775 13.4952L31.9478 8.02483V23.9601C31.9478 24.8322 32.5821 25.4665 33.3749 25.4665C34.1677 25.4665 34.8019 24.8322 34.8019 24.0394V8.02483L40.2722 13.4952C40.5894 13.8123 40.9065 13.8916 41.3029 13.8916C41.6993 13.8916 42.0164 13.733 42.3335 13.4952C42.8885 12.9402 42.8885 11.9888 42.3335 11.4339Z" fill="white"/>
<path d="M42.3335 11.4339L34.4055 3.50586C34.247 3.3473 34.0884 3.26802 33.9298 3.18874C33.6127 3.03018 33.137 3.03018 32.8199 3.18874C32.6613 3.26802 32.5028 3.3473 32.3442 3.50586L24.4162 11.4339C23.8613 11.9888 23.8613 12.9402 24.4162 13.4952C24.7333 13.8123 25.0505 13.8916 25.4469 13.8916C25.8433 13.8916 26.1604 13.733 26.4775 13.4952L31.9478 8.02483V23.9601C31.9478 24.8322 32.5821 25.4665 33.3749 25.4665C34.1677 25.4665 34.8019 24.8322 34.8019 24.0394V8.02483L40.2722 13.4952C40.5893 13.8123 40.9065 13.8916 41.3029 13.8916C41.6993 13.8916 42.0164 13.733 42.3335 13.4952C42.8885 12.9402 42.8885 11.9888 42.3335 11.4339Z" fill="white"/>
</g>
<defs>
<clipPath id="clip0">
<rect width="70" height="70" fill="white"/>
</clipPath>
</defs>
</svg>
