<svg width="70" height="70" viewBox="0 0 70 70" fill="none" xmlns="http://www.w3.org/2000/svg">
<path d="M70 39.9072L69.8569 39.5404L69.81 38.6084H69.2977L57.2885 20.5693H43.4164V22.9745H56.0017L66.4391 38.6084H47.0242V47.0266H22.9722V38.6084H3.5573L13.9947 22.9745H26.58V20.5693H12.7067L0.640988 38.6457L0.122666 38.6721V39.6438L0 39.9457L0.122666 40.1189V63.4001C0.122666 65.6441 1.94942 67.4697 4.19348 67.4697H65.8029C68.047 67.4697 69.8737 65.6441 69.8737 63.4001V40.0984L70 39.9072ZM67.4685 63.4001C67.4685 64.3177 66.7217 65.0645 65.8029 65.0645H4.19228C3.27349 65.0645 2.52667 64.3177 2.52667 63.4001V41.0136H20.5657V49.4318H49.4282V41.0136H67.4673V63.4001H67.4685Z" fill="white"/>
<path d="M26.2275 29.3387C25.7572 28.8685 24.9972 28.8685 24.527 29.3387C24.0568 29.8089 24.0568 30.569 24.527 31.0392L34.1466 40.6588C34.1478 40.66 34.1478 40.66 34.149 40.6613L34.9981 41.5103L35.8471 40.6613C35.8483 40.66 35.8483 40.66 35.8495 40.6588L45.4691 31.0392C45.9393 30.569 45.9393 29.8089 45.4691 29.3387C44.9989 28.8685 44.2389 28.8685 43.7687 29.3387L36.2007 36.9067V3.73288C36.2007 3.06904 35.6631 2.53027 34.9981 2.53027C34.333 2.53027 33.7955 3.06904 33.7955 3.73288V36.9079L26.2275 29.3387Z" fill="white"/>
</svg>
