<svg width="12" height="12" viewBox="0 0 12 12" fill="none" xmlns="http://www.w3.org/2000/svg">
<path d="M2.74384 5.75756H1.75684L4.52002 10.2435L11.6253 0.375H10.6383L4.52002 7.10325L2.74384 5.75756Z" fill="#FDB533"/>
<path d="M9.84863 10.2435C9.84863 10.3524 9.76031 10.4407 9.65119 10.4407H1.7565C1.70417 10.4407 1.65398 10.42 1.61696 10.383C1.57994 10.346 1.55911 10.2958 1.55906 10.2435V2.34861C1.55906 2.23948 1.64756 2.15117 1.7565 2.15117H7.15538L8.23238 0.966919H0.769688C0.665023 0.967068 0.564691 1.00872 0.4907 1.08275C0.416708 1.15678 0.375099 1.25713 0.375 1.36179V11.2301C0.375 11.4485 0.551813 11.625 0.769688 11.625H10.638C10.6898 11.625 10.7412 11.6149 10.7891 11.595C10.837 11.5752 10.8805 11.5462 10.9172 11.5095C10.9539 11.4728 10.9829 11.4293 11.0027 11.3814C11.0226 11.3335 11.0327 11.2821 11.0327 11.2303V3.56173L9.84863 5.20667V10.2435Z" fill="white"/>
</svg>
