<svg width="20" height="20" viewBox="0 0 20 20" fill="none" xmlns="http://www.w3.org/2000/svg">
<path d="M10.0002 16.8C6.2402 16.8 3.2002 13.76 3.2002 9.99995C3.2002 6.23995 6.2402 3.19995 10.0002 3.19995C13.7602 3.19995 16.8002 6.23995 16.8002 9.99995C16.8002 13.76 13.7602 16.8 10.0002 16.8ZM10.0002 3.99995C6.6802 3.99995 4.0002 6.67995 4.0002 9.99995C4.0002 13.32 6.6802 16 10.0002 16C13.3202 16 16.0002 13.32 16.0002 9.99995C16.0002 6.67995 13.3202 3.99995 10.0002 3.99995Z" fill="white"/>
<path d="M12.1201 13.4799L9.6001 10.9599V6.3999H10.4001V10.6399L12.6801 12.9199L12.1201 13.4799Z" fill="white"/>
</svg>
