<svg width="20" height="20" viewBox="0 0 20 20" fill="none" xmlns="http://www.w3.org/2000/svg">
<path d="M10.0002 16.8C6.2402 16.8 3.2002 13.76 3.2002 10C3.2002 6.24001 6.2402 3.20001 10.0002 3.20001C13.7602 3.20001 16.8002 6.24001 16.8002 10C16.8002 13.76 13.7602 16.8 10.0002 16.8ZM10.0002 4.00001C6.6802 4.00001 4.0002 6.68001 4.0002 10C4.0002 13.32 6.6802 16 10.0002 16C13.3202 16 16.0002 13.32 16.0002 10C16.0002 6.68001 13.3202 4.00001 10.0002 4.00001Z" fill="white"/>
<path d="M7.91977 7.84C8.03977 7.52 8.15977 7.28 8.39977 7.08C8.59977 6.88 8.83977 6.72 9.15977 6.6C9.47977 6.48 9.79976 6.44 10.1598 6.44C10.4398 6.44 10.7198 6.48 10.9598 6.56C11.1998 6.64 11.4398 6.76 11.6398 6.92C11.8398 7.08 11.9998 7.28 12.0798 7.52C12.1998 7.76 12.2398 8.04 12.2398 8.32C12.2398 8.72 12.1598 9.04 11.9998 9.32C11.8398 9.6 11.5998 9.84 11.3598 10.12L10.8398 10.64C10.7198 10.76 10.5998 10.88 10.5598 11C10.4798 11.12 10.4398 11.28 10.4398 11.44C10.3998 11.6 10.3998 11.72 10.3998 12.04H9.75976C9.75976 11.72 9.75977 11.6 9.79977 11.36C9.83977 11.16 9.91976 10.96 9.99976 10.76C10.0798 10.6 10.1998 10.44 10.3598 10.28C10.5198 10.12 10.7198 9.96 10.9198 9.72C11.1198 9.52 11.2798 9.32 11.3998 9.12C11.5198 8.92 11.5998 8.64 11.5998 8.4C11.5998 8.2 11.5598 8 11.4798 7.84C11.3998 7.68 11.2798 7.52 11.1598 7.4C11.0398 7.28 10.8798 7.2 10.6798 7.12C10.4798 7.04 10.3198 7 10.1198 7C9.83976 7 9.59977 7.04 9.39977 7.16C9.19977 7.24 8.99977 7.4 8.87977 7.56C8.75977 7.72 8.63977 7.92 8.55977 8.16C8.47977 8.4 8.39977 8.52 8.39977 8.8H7.75977C7.75977 8.44 7.79977 8.16 7.91977 7.84ZM10.3998 12.8V13.6H9.59977V12.8H10.3998Z" fill="white"/>
</svg>
