<svg width="40" height="40" viewBox="0 0 40 40" fill="none" xmlns="http://www.w3.org/2000/svg">
<path d="M20 0C8.95275 0 0 8.74821 0 19.5336C0 30.3231 8.95275 39.0671 20 39.0671C31.0472 39.0671 40 30.3231 40 19.5336C40 8.74821 31.0472 0 20 0ZM25.1992 11.789H23.1178C21.4849 11.789 21.1713 12.546 21.1713 13.656V16.1057H25.0642L24.5548 19.9461H21.167V29.7958H17.1086V19.9503H13.7165V16.11H17.1086V13.2775C17.1086 9.99005 19.1639 8.20384 22.1642 8.20384C23.6011 8.20384 24.8378 8.31016 25.1992 8.35694V11.789Z" fill="#FDB533"/>
</svg>
