<svg width="40" height="40" viewBox="0 0 40 40" fill="none" xmlns="http://www.w3.org/2000/svg">
<circle cx="20" cy="20" r="20" fill="#FDB533"/>
<path d="M20 32.5C26.9037 32.5 32.5 26.9037 32.5 20C32.5 13.0963 26.9037 7.5 20 7.5C13.0963 7.5 7.5 13.0963 7.5 20C7.5 26.9037 13.0963 32.5 20 32.5Z" stroke="black" stroke-width="2" stroke-linecap="round" stroke-linejoin="round"/>
<path d="M7.5 20H32.5" stroke="black" stroke-width="2" stroke-linecap="round" stroke-linejoin="round"/>
<path d="M20 32.5C22.7613 32.5 25 26.9037 25 20C25 13.0963 22.7613 7.5 20 7.5C17.2387 7.5 15 13.0963 15 20C15 26.9037 17.2387 32.5 20 32.5Z" stroke="black" stroke-width="2" stroke-linecap="round" stroke-linejoin="round"/>
<path d="M11.1613 11.3387C12.3207 12.5012 13.6984 13.4231 15.2153 14.0514C16.7321 14.6798 18.3582 15.0021 20 15V15C21.6418 15.0021 23.2679 14.6798 24.7848 14.0514C26.3016 13.4231 27.6793 12.5012 28.8388 11.3387" stroke="black" stroke-width="2" stroke-linecap="round" stroke-linejoin="round"/>
<path d="M28.8388 28.6613C27.6793 27.4988 26.3016 26.5769 24.7848 25.9486C23.2679 25.3202 21.6418 24.9979 20 25C18.3582 24.9979 16.7321 25.3202 15.2153 25.9486C13.6984 26.5769 12.3207 27.4988 11.1613 28.6613" stroke="black" stroke-width="2" stroke-linecap="round" stroke-linejoin="round"/>
</svg>
