<svg width="28" height="18" viewBox="0 0 28 18" fill="#fff" xmlns="http://www.w3.org/2000/svg">
    <path d="M24.8557 0.424988H3.14476C2.57529 0.425683 2.02936 0.652239 1.62673 1.05495C1.22409 1.45767 0.997649 2.00365 0.99707 2.57311V15.4275C0.997649 15.997 1.22409 16.543 1.62673 16.9457C2.02936 17.3484 2.57529 17.575 3.14476 17.5756H24.8557C25.4252 17.575 25.9711 17.3484 26.3737 16.9457C26.7764 16.543 27.0028 15.997 27.0034 15.4275V2.57246C27.0026 2.00311 26.7761 1.45729 26.3735 1.05472C25.9709 0.652149 25.425 0.425682 24.8557 0.424988ZM26.2377 2.57311V4.26099H22.1213V1.19061H24.8557C25.2221 1.19108 25.5733 1.3368 25.8324 1.59584C26.0914 1.85488 26.2372 2.20609 26.2377 2.57246V2.57311ZM18.4013 1.19061H21.3557V6.71886L20.1491 5.51246C20.0773 5.44072 19.98 5.40043 19.8785 5.40043C19.777 5.40043 19.6797 5.44072 19.6079 5.51246L18.4013 6.71886V1.19061ZM3.14476 1.19061H17.6356V4.26033H1.7627V2.57246C1.76322 2.20609 1.909 1.85488 2.16808 1.59584C2.42716 1.3368 2.77839 1.19108 3.14476 1.19061ZM24.8557 16.8094H3.14476C2.77828 16.8089 2.42695 16.6631 2.16785 16.4039C1.90875 16.1447 1.76304 15.7933 1.7627 15.4269V5.02596H17.6356V7.64374C17.6356 7.71944 17.6581 7.79345 17.7001 7.8564C17.7422 7.91935 17.8019 7.96842 17.8719 7.99741C17.9418 8.02639 18.0188 8.03399 18.093 8.01924C18.1673 8.0045 18.2355 7.96806 18.289 7.91455L19.8785 6.32533L21.4679 7.91455C21.5215 7.96806 21.5897 8.0045 21.6639 8.01924C21.7382 8.03399 21.8151 8.02639 21.8851 7.99741C21.955 7.96842 22.0148 7.91935 22.0568 7.8564C22.0989 7.79345 22.1213 7.71944 22.1213 7.64374V5.02596H26.2377V15.4275C26.2372 15.7939 26.0914 16.1451 25.8324 16.4041C25.5733 16.6632 25.2221 16.8089 24.8557 16.8094Z" fill="white"/>
    <path d="M10.9295 7.26025H4.37988C4.27835 7.26025 4.18098 7.30059 4.10919 7.37238C4.0374 7.44417 3.99707 7.54154 3.99707 7.64307V14.1927C3.99704 14.2429 4.00692 14.2927 4.02615 14.3392C4.04538 14.3856 4.07358 14.4279 4.10913 14.4634C4.14468 14.499 4.18689 14.5272 4.23335 14.5464C4.27981 14.5656 4.3296 14.5755 4.37988 14.5755H10.9295C10.9798 14.5755 11.0295 14.5656 11.076 14.5464C11.1225 14.5272 11.1647 14.499 11.2002 14.4634C11.2358 14.4279 11.264 14.3856 11.2832 14.3392C11.3024 14.2927 11.3123 14.2429 11.3123 14.1927V7.64372C11.3124 7.5934 11.3025 7.54355 11.2833 7.49703C11.2641 7.4505 11.236 7.40823 11.2004 7.37261C11.1648 7.33699 11.1226 7.30874 11.0761 7.28946C11.0296 7.27018 10.9798 7.26025 10.9295 7.26025ZM6.88785 10.2759C6.88785 10.1245 6.93275 9.97649 7.01688 9.85058C7.10101 9.72468 7.22058 9.62654 7.36048 9.5686C7.50038 9.51065 7.65433 9.49549 7.80284 9.52503C7.95136 9.55457 8.08778 9.62749 8.19485 9.73456C8.30193 9.84164 8.37485 9.97806 8.40439 10.1266C8.43393 10.2751 8.41877 10.429 8.36082 10.5689C8.30287 10.7088 8.20474 10.8284 8.07883 10.9125C7.95293 10.9967 7.8049 11.0416 7.65348 11.0416C7.45058 11.041 7.25614 10.9602 7.11267 10.8167C6.9692 10.6733 6.88837 10.4788 6.88785 10.2759ZM7.65348 11.8072C7.9989 11.8076 8.33005 11.945 8.5743 12.1892C8.81855 12.4335 8.95595 12.7646 8.95635 13.1101V13.8088H6.3517V13.1112C6.3521 12.7657 6.4895 12.4346 6.73375 12.1903C6.97799 11.9461 7.30915 11.8087 7.65457 11.8083L7.65348 11.8072ZM10.5456 13.8088H9.72307V13.1112C9.72267 12.759 9.63229 12.4128 9.46051 12.1054C9.28873 11.7979 9.04124 11.5395 8.74154 11.3546C8.95487 11.1399 9.09984 10.8669 9.15818 10.5699C9.21652 10.2729 9.1856 9.9653 9.06934 9.68586C8.95307 9.40643 8.75666 9.16769 8.50488 8.99974C8.2531 8.8318 7.95722 8.74217 7.65457 8.74217C7.35192 8.74217 7.05604 8.8318 6.80426 8.99974C6.55248 9.16769 6.35607 9.40643 6.2398 9.68586C6.12354 9.9653 6.09262 10.2729 6.15096 10.5699C6.2093 10.8669 6.35427 11.1399 6.5676 11.3546C6.26792 11.5395 6.02046 11.798 5.84868 12.1054C5.67691 12.4128 5.58651 12.759 5.58607 13.1112V13.8098H4.7627V8.02588H10.5467L10.5456 13.8088Z" fill="white"/>
    <path d="M23.6209 13.8099H14.3516C14.25 13.8099 14.1527 13.8502 14.0809 13.922C14.0091 13.9938 13.9688 14.0912 13.9688 14.1927C13.9688 14.2942 14.0091 14.3916 14.0809 14.4634C14.1527 14.5352 14.25 14.5755 14.3516 14.5755H23.6209C23.7224 14.5755 23.8198 14.5352 23.8916 14.4634C23.9634 14.3916 24.0037 14.2942 24.0037 14.1927C24.0037 14.0912 23.9634 13.9938 23.8916 13.922C23.8198 13.8502 23.7224 13.8099 23.6209 13.8099Z" fill="white"/>
    <path d="M23.6209 11.6191H14.3516C14.25 11.6191 14.1527 11.6594 14.0809 11.7312C14.0091 11.803 13.9688 11.9004 13.9688 12.0019C13.9688 12.1034 14.0091 12.2008 14.0809 12.2726C14.1527 12.3444 14.25 12.3847 14.3516 12.3847H23.6209C23.7224 12.3847 23.8198 12.3444 23.8916 12.2726C23.9634 12.2008 24.0037 12.1034 24.0037 12.0019C24.0037 11.9004 23.9634 11.803 23.8916 11.7312C23.8198 11.6594 23.7224 11.6191 23.6209 11.6191Z" fill="white"/>
    <path d="M23.6209 9.40881H14.3516C14.25 9.40881 14.1527 9.44914 14.0809 9.52094C14.0091 9.59273 13.9688 9.6901 13.9688 9.79163C13.9688 9.89315 14.0091 9.99052 14.0809 10.0623C14.1527 10.1341 14.25 10.1744 14.3516 10.1744H23.6209C23.7224 10.1744 23.8198 10.1341 23.8916 10.0623C23.9634 9.99052 24.0037 9.89315 24.0037 9.79163C24.0037 9.6901 23.9634 9.59273 23.8916 9.52094C23.8198 9.44914 23.7224 9.40881 23.6209 9.40881Z" fill="white"/>
</svg>
