<svg width="29" height="29" viewBox="0 0 29 29" fill="none" xmlns="http://www.w3.org/2000/svg">
<path d="M14.5 1.8125C7.49356 1.8125 1.8125 7.49356 1.8125 14.5C1.8125 21.5064 7.49356 27.1875 14.5 27.1875C21.5064 27.1875 27.1875 21.5064 27.1875 14.5C27.1875 7.49356 21.5064 1.8125 14.5 1.8125ZM14.5 25.0352C8.68301 25.0352 3.96484 20.317 3.96484 14.5C3.96484 8.68301 8.68301 3.96484 14.5 3.96484C20.317 3.96484 25.0352 8.68301 25.0352 14.5C25.0352 20.317 20.317 25.0352 14.5 25.0352Z" fill="white"/>
<path d="M19.4476 18.0854L15.4091 15.1655V8.15625C15.4091 8.03164 15.3071 7.92969 15.1825 7.92969H13.8203C13.6957 7.92969 13.5938 8.03164 13.5938 8.15625V15.9557C13.5938 16.0293 13.6277 16.0973 13.6872 16.1397L18.3714 19.5552C18.4733 19.6288 18.6149 19.6062 18.6886 19.507L19.4985 18.4025C19.5722 18.2978 19.5495 18.1562 19.4476 18.0854Z" fill="white"/>
</svg>
