<svg width="73" height="73" viewBox="0 0 73 73" fill="none" xmlns="http://www.w3.org/2000/svg">
<path d="M61.5877 36.6696C61.5877 30.155 59.1026 23.98 54.5905 19.282C54.1819 18.8566 53.5058 18.8431 53.0805 19.2515C52.6551 19.6601 52.6414 20.3362 53.05 20.7616C57.1782 25.0597 59.4518 30.7092 59.4518 36.6695C59.4518 49.3344 49.148 59.6383 36.483 59.6383C23.8181 59.6383 13.514 49.3346 13.514 36.6696C13.514 24.0046 23.8178 13.7007 36.4828 13.7007C41.2678 13.7007 45.8537 15.1577 49.7447 17.9144C50.2257 18.2554 50.8926 18.1416 51.2335 17.6603C51.5746 17.179 51.4608 16.5124 50.9795 16.1715C46.7255 13.1577 41.7126 11.5646 36.4828 11.5646C22.64 11.5646 11.3779 22.8267 11.3779 36.6695C11.3779 50.5123 22.64 61.7743 36.4828 61.7743C50.3255 61.7743 61.5877 50.5124 61.5877 36.6696Z" fill="white"/>
<path d="M25.2652 49.8017C24.5592 49.1979 23.897 48.5337 23.2872 47.8123C22.9063 47.3619 22.2326 47.3052 21.782 47.6861C21.3316 48.0669 21.2751 48.7408 21.6559 49.1913C25.3553 53.5679 30.7598 56.0779 36.4835 56.0779C47.1853 56.0779 55.8918 47.3713 55.8918 36.6696C55.8918 25.9679 47.1852 17.2613 36.4835 17.2613C25.7818 17.2613 17.0752 25.9679 17.0752 36.6696C17.0752 39.6065 17.7152 42.4289 18.9774 45.0585C19.2326 45.5902 19.8708 45.8145 20.4024 45.5592C20.9342 45.304 21.1583 44.6661 20.9031 44.1342C19.7806 41.7954 19.2112 39.284 19.2112 36.6696C19.2112 27.1456 26.9596 19.3973 36.4835 19.3973C46.0074 19.3973 53.7558 27.1457 53.7558 36.6696C53.7558 41.9175 51.4024 46.6258 47.6964 49.7961C45.932 47.9181 43.6667 46.5606 41.1786 45.8904V43.9426C41.8894 43.5154 42.5486 42.9895 43.1368 42.367C43.542 41.9383 43.5229 41.2624 43.0941 40.8571C42.6655 40.4521 41.9895 40.4712 41.5842 40.8998C40.2432 42.3188 38.4316 43.1005 36.4834 43.1005C32.613 43.1005 29.4641 39.9517 29.4641 36.0812V33.05H43.5025V36.0812C43.5025 36.4971 43.4635 36.9225 43.3867 37.3453C43.2812 37.9256 43.6661 38.4817 44.2464 38.5872C44.8264 38.6926 45.3828 38.3078 45.4883 37.7275C45.5881 37.179 45.6387 36.625 45.6387 36.0812V31.982C45.6387 31.9809 45.6385 31.9799 45.6385 31.9787C45.6385 31.9774 45.6387 31.9762 45.6387 31.9749L45.5861 24.033C45.5823 23.4518 45.2549 22.934 44.7316 22.6813C44.2084 22.4286 43.5992 22.4943 43.1418 22.8524L42.1041 23.6653H34.167C30.3961 23.6653 27.3283 26.733 27.3283 30.504V31.9818V36.081C27.3283 39.414 29.1192 42.3356 31.7883 43.937V45.8903C29.2974 46.5613 27.0301 47.9208 25.2652 49.8017ZM34.1669 25.8014H42.4725C42.7112 25.8014 42.9432 25.7214 43.1311 25.5743L43.4585 25.3178L43.4955 30.9141H29.4642V30.5043C29.4642 27.911 31.5739 25.8014 34.1669 25.8014ZM45.9807 51.0888C43.254 52.8909 39.9893 53.9419 36.4834 53.9419C33.0637 53.9419 29.7728 52.9335 26.9821 51.0928C28.3636 49.6782 30.0888 48.6312 31.9795 48.0559C32.5525 50.0023 34.3542 51.4276 36.4834 51.4276C38.6126 51.4276 40.4144 50.0023 40.9873 48.0559C42.8761 48.6308 44.5999 49.6762 45.9807 51.0888ZM36.4834 45.2365C37.3643 45.2365 38.2227 45.1113 39.0425 44.8744V46.7326C39.0425 48.1437 37.8944 49.2917 36.4834 49.2917C35.0723 49.2917 33.9242 48.1437 33.9242 46.7326V44.8698C34.7369 45.1068 35.595 45.2365 36.4834 45.2365Z" fill="white"/>
<path d="M48.2996 12.0826C48.8816 12.1776 49.4307 11.7827 49.5257 11.2005C49.9307 8.71961 51.2105 6.44644 53.1293 4.79984C53.2199 4.72209 53.3129 4.64776 53.4057 4.57328C53.0553 5.42257 52.8616 6.35231 52.8616 7.32663C52.8616 9.15621 53.5449 10.8283 54.6677 12.1045C54.0555 12.4941 53.4845 12.9485 52.9619 13.4672C52.5432 13.8825 52.5406 14.5588 52.9562 14.9775C53.1649 15.1878 53.4396 15.2932 53.7142 15.2932C53.9862 15.2932 54.2582 15.1899 54.4665 14.9832C55.0472 14.4069 55.7028 13.9304 56.4187 13.5583C57.4994 14.2 58.7596 14.5701 60.105 14.5701C61.4512 14.5701 62.712 14.1997 63.7931 13.5573C66.2591 14.8398 67.8982 17.3327 68.0906 20.1108C66.5197 21.8608 64.3697 23.0964 61.8932 23.5121C61.3115 23.6098 60.9192 24.1604 61.0167 24.7422C61.1043 25.2641 61.5566 25.6334 62.0688 25.6334C62.1274 25.6334 62.187 25.6286 62.2468 25.6186C65.2106 25.1211 67.9235 23.5827 69.8854 21.2869C71.8702 18.9643 72.9631 16.0005 72.9631 12.9414C72.9631 5.85134 67.195 0.0831909 60.1049 0.0831909C57.0357 0.0831909 54.0642 1.18254 51.7381 3.17888C49.4377 5.15286 47.9033 7.87958 47.4174 10.8566C47.3224 11.4386 47.7173 11.9876 48.2996 12.0826ZM54.9975 7.32663C54.9975 4.51034 57.2888 2.21908 60.105 2.21908C62.9213 2.21908 65.2126 4.51034 65.2126 7.32663C65.2126 10.1429 62.9213 12.4342 60.105 12.4342C57.2888 12.4342 54.9975 10.1429 54.9975 7.32663ZM70.8272 12.9414C70.8272 14.6061 70.4493 16.1889 69.7699 17.6031C69.0523 15.3474 67.5591 13.389 65.5427 12.1044C66.6655 10.828 67.3486 9.15607 67.3486 7.32663C67.3486 6.35488 67.1558 5.42755 66.8071 4.5804C69.2558 6.54712 70.8272 9.56349 70.8272 12.9414Z" fill="white"/>
<path d="M10.7587 25.5364C10.8185 25.5464 10.8778 25.5513 10.9364 25.5513C11.4486 25.5513 11.9011 25.1816 11.9885 24.6595C12.0859 24.0778 11.6933 23.5271 11.1116 23.4297C8.63663 23.0152 6.48749 21.782 4.91651 20.0347C5.13338 17.2874 6.76489 14.8282 9.20823 13.5574C10.2893 14.1998 11.5502 14.5702 12.8963 14.5702C14.2417 14.5702 15.502 14.2002 16.5827 13.5584C17.293 13.9275 17.944 14.3996 18.5215 14.97C18.7295 15.1757 19.0008 15.2782 19.2719 15.2782C19.5475 15.2782 19.8229 15.1723 20.0318 14.9608C20.4463 14.5411 20.4421 13.8649 20.0225 13.4505C19.5045 12.9388 18.9387 12.4907 18.3332 12.1051C19.4564 10.8287 20.1397 9.15647 20.1397 7.3266C20.1397 6.3033 19.9263 5.32912 19.5417 4.44594C19.6604 4.53979 19.7783 4.63505 19.8934 4.73431C21.8165 6.39287 23.0923 8.67971 23.4858 11.1735C23.5778 11.7562 24.1256 12.1543 24.7072 12.062C25.2899 11.9702 25.6876 11.4234 25.5957 10.8407C25.1238 7.84808 23.5941 5.10512 21.2885 3.11676C18.9581 1.10689 15.9778 0 12.8964 0C5.80638 0 0.0380859 5.76815 0.0380859 12.8582C0.0380859 15.918 1.13159 18.8826 3.11725 21.2053C5.08013 23.5017 7.79389 25.0397 10.7587 25.5364ZM7.7889 7.3266C7.7889 4.51031 10.0802 2.21906 12.8964 2.21906C15.7127 2.21906 18.004 4.51031 18.004 7.3266C18.004 10.1429 15.7127 12.4341 12.8964 12.4341C10.0802 12.4341 7.7889 10.1429 7.7889 7.3266ZM6.24882 4.45349C5.86633 5.33496 5.65287 6.30615 5.65287 7.32674C5.65287 9.15661 6.3364 10.8291 7.45967 12.1055C5.45792 13.3806 3.97195 15.3194 3.24826 17.5539C2.55847 16.1312 2.17412 14.5366 2.17412 12.8584C2.17412 9.45537 3.76889 6.41893 6.24882 4.45349Z" fill="white"/>
<path d="M62.2976 47.6348C61.7168 47.5316 61.1624 47.9188 61.0592 48.4995C60.9632 49.0398 61.2917 49.5568 61.8055 49.7095C61.8143 49.7129 61.8226 49.7172 61.8316 49.7203C63.8537 50.447 65.2123 52.3785 65.2123 54.527C65.2123 57.3432 62.9211 59.6345 60.1048 59.6345C58.4314 59.6345 56.8614 58.8114 55.9053 57.4327C55.5694 56.9481 54.904 56.8275 54.4191 57.1637C53.9343 57.4998 53.8139 58.1652 54.1501 58.6499C54.3097 58.8801 54.4823 59.0984 54.6649 59.306C52.652 60.5892 51.1606 62.5439 50.4425 64.7954C50.0386 63.9553 49.7396 63.0509 49.5639 62.0974C49.4569 61.5173 48.9008 61.1339 48.32 61.2405C47.74 61.3475 47.3564 61.9044 47.4632 62.4844C48.5861 68.5775 53.9026 72.9998 60.1048 72.9998C67.1949 72.9998 72.963 67.2317 72.963 60.1416C72.9632 53.9929 68.4776 48.7332 62.2976 47.6348ZM60.1049 70.8639C56.9647 70.8639 54.0984 69.503 52.1203 67.2979C52.3171 64.5253 53.9547 62.0384 56.4166 60.7579C57.5186 61.4107 58.7887 61.7705 60.1048 61.7705C61.4509 61.7705 62.7117 61.4001 63.7929 60.7578C66.2522 62.0368 67.8891 64.5199 68.0887 67.2891C66.1243 69.4813 63.2734 70.8639 60.1049 70.8639ZM69.7658 64.7908C69.0467 62.5407 67.5548 60.5873 65.5421 59.3053C66.6651 58.0289 67.3485 56.3567 67.3485 54.527C67.3485 53.6429 67.1853 52.7851 66.885 51.9871C69.3127 53.9421 70.8273 56.8924 70.8273 60.1417C70.8271 61.8064 70.4458 63.3837 69.7658 64.7908Z" fill="white"/>
<path d="M24.6788 61.2558C24.0984 61.148 23.5416 61.531 23.4338 62.1109C23.2578 63.0592 22.9596 63.9587 22.5576 64.7948C21.8389 62.5435 20.347 60.5893 18.3337 59.3064C18.5108 59.1051 18.6789 58.8943 18.8344 58.6719C19.1723 58.1884 19.0544 57.5226 18.5709 57.1846C18.0875 56.8466 17.4216 56.9645 17.0837 57.4481C16.1267 58.8171 14.5609 59.6344 12.8953 59.6344C10.079 59.6344 7.78778 57.3431 7.78778 54.5268C7.78778 52.3857 9.14018 50.4563 11.1529 49.7256C11.1616 49.7225 11.1697 49.7182 11.1782 49.7149C11.6852 49.5567 12.0072 49.0428 11.9103 48.5068C11.8055 47.9262 11.2493 47.541 10.6696 47.6455C4.50883 48.758 0.0371094 54.0135 0.0371094 60.1416C0.0371094 67.2317 5.80526 72.9998 12.8953 72.9998C19.0894 72.9998 24.4047 68.5844 25.534 62.5007C25.6418 61.9209 25.2588 61.3634 24.6788 61.2558ZM6.11256 51.9963C5.81409 52.7921 5.65203 53.6468 5.65203 54.527C5.65203 56.3563 6.33514 58.0282 7.4577 59.3044C5.44498 60.5868 3.95389 62.5408 3.23504 64.7915C2.55493 63.3841 2.17329 61.8067 2.17329 60.1418C2.17314 56.8995 3.68702 53.9517 6.11256 51.9963ZM12.8955 70.8639C9.72688 70.8639 6.87612 69.4814 4.91154 67.2891C5.11119 64.5199 6.74796 62.0368 9.20739 60.7578C10.2885 61.4002 11.5493 61.7706 12.8955 61.7706C14.2106 61.7706 15.4811 61.4107 16.5836 60.7578C19.0453 62.038 20.6829 64.5246 20.8801 67.297C18.9014 69.5024 16.0347 70.8639 12.8955 70.8639Z" fill="white"/>
</svg>
