<svg width="78" height="73" viewBox="0 0 78 46" fill="none" xmlns="http://www.w3.org/2000/svg">
<path fill-rule="evenodd" clip-rule="evenodd" d="M9.71786 0.148438H68.2821C70.9559 0.148438 73.3857 1.24103 75.1465 3.00191C76.9074 4.76279 78 7.19255 78 9.8663V36.242C78 38.9158 76.9068 41.3455 75.1465 43.1064C73.3862 44.8667 70.9559 45.9599 68.2821 45.9599H45.0938V45.9563C44.2523 45.9563 43.5703 45.2743 43.5703 44.4329C43.5703 43.5914 44.2523 42.9094 45.0938 42.9094V42.9059H68.2821C70.1126 42.9059 71.7789 42.1554 72.9875 40.9474C74.1962 39.7382 74.946 38.0725 74.946 36.242V13.2256H45.0938V13.2226C44.2523 13.2226 43.5703 12.5401 43.5703 11.6986C43.5703 10.8577 44.2523 10.1752 45.0938 10.1752V10.1722H74.946V9.8663C74.946 8.0352 74.1956 6.36954 72.9875 5.1609C71.7789 3.95227 70.1132 3.20245 68.2821 3.20245H9.71786C7.88676 3.20245 6.2211 3.95287 5.01247 5.1609C3.80383 6.36954 3.05402 8.0352 3.05402 9.8663V10.1722H32.9062V10.1752C33.7477 10.1752 34.4297 10.8577 34.4297 11.6986C34.4297 12.5401 33.7477 13.2226 32.9062 13.2226V13.2256H3.05402V36.242C3.05402 38.0725 3.80443 39.7382 5.01247 40.9474C6.2211 42.1554 7.88676 42.9059 9.71786 42.9059H32.9062V42.9094C33.7477 42.9094 34.4297 43.5914 34.4297 44.4329C34.4297 45.2743 33.7477 45.9563 32.9062 45.9563V45.9599H9.71786C7.04411 45.9599 4.61375 44.8667 2.85347 43.1064C1.09259 41.3455 0 38.9158 0 36.242V9.8663C0 7.19255 1.09259 4.76279 2.85347 3.00191C4.61375 1.24103 7.04411 0.148438 9.71786 0.148438V0.148438ZM39 10.1752C38.1585 10.1752 37.4766 10.8577 37.4766 11.6986C37.4766 12.5401 38.1585 13.2226 39 13.2226C39.8415 13.2226 40.5234 12.5401 40.5234 11.6986C40.5234 10.8577 39.8415 10.1752 39 10.1752ZM39 42.9094C38.1585 42.9094 37.4766 43.5914 37.4766 44.4329C37.4766 45.2743 38.1585 45.9563 39 45.9563C39.8415 45.9563 40.5234 45.2743 40.5234 44.4329C40.5234 43.5914 39.8415 42.9094 39 42.9094ZM18.4598 34.3109L21.1294 30.6356L23.7995 34.3109C24.2935 34.9929 25.2468 35.1452 25.9288 34.6507C26.6108 34.1568 26.7631 33.2035 26.2686 32.5215L23.596 28.8426L27.9182 27.4382C28.7186 27.1781 29.1566 26.3182 28.8965 25.5178C28.6365 24.7174 27.7766 24.2794 26.9762 24.5395L22.6564 25.9433V21.3986C22.6564 20.5554 21.9726 19.8722 21.1294 19.8722C20.2861 19.8722 19.6024 20.5554 19.6024 21.3986V25.9433L15.2826 24.5395C14.4822 24.2794 13.6229 24.7174 13.3622 25.5178C13.1022 26.3182 13.5401 27.1781 14.3405 27.4382L18.6627 28.8426L15.9901 32.5215C15.4962 33.2035 15.6486 34.1568 16.3299 34.6507C17.0119 35.1447 17.9659 34.9923 18.4598 34.3109ZM54.2005 34.3109L56.87 30.6356L59.5402 34.3109C60.0341 34.9929 60.9875 35.1452 61.6695 34.6507C62.3514 34.1568 62.5038 33.2035 62.0093 32.5215L59.3367 28.8426L63.6589 27.4382C64.4599 27.1781 64.8978 26.3182 64.6372 25.5178C64.3771 24.7174 63.5172 24.2794 62.7168 24.5395L58.397 25.9433V21.3986C58.397 20.5554 57.7139 19.8722 56.8706 19.8722C56.0274 19.8722 55.3436 20.5554 55.3436 21.3986V25.9433L51.0238 24.5395C50.2234 24.2794 49.3635 24.7174 49.1035 25.5178C48.8428 26.3182 49.2808 27.1781 50.0812 27.4382L54.404 28.8426L51.7314 32.5215C51.2369 33.2035 51.3892 34.1568 52.0712 34.6507C52.7526 35.1447 53.7059 34.9923 54.2005 34.3109ZM36.3298 34.3109L39 30.6356L41.6696 34.3109C42.1641 34.9929 43.1174 35.1452 43.7994 34.6507C44.4814 34.1568 44.6337 33.2035 44.1392 32.5215L41.4667 28.8426L45.7888 27.4382C46.5898 27.1781 47.0278 26.3182 46.7672 25.5178C46.5071 24.7174 45.6472 24.2794 44.8468 24.5395L40.527 25.9433V21.3986C40.527 20.5554 39.8432 19.8722 39 19.8722C38.1568 19.8722 37.473 20.5554 37.473 21.3986V25.9433L33.1532 24.5395C32.3528 24.2794 31.4935 24.7174 31.2328 25.5178C30.9728 26.3182 31.4108 27.1781 32.2112 27.4382L36.5339 28.8426L33.8608 32.5215C33.3669 33.2035 33.5192 34.1568 34.2006 34.6507C34.8826 35.1447 35.8359 34.9923 36.3298 34.3109Z" fill="white"/>
</svg>
