<svg width="26" height="28" viewBox="0 0 26 28" fill="none" xmlns="http://www.w3.org/2000/svg">
<path d="M25.0947 17.3311L23.1758 15.6905C23.2666 15.1338 23.3135 14.5655 23.3135 13.9971C23.3135 13.4287 23.2666 12.8604 23.1758 12.3037L25.0947 10.6631C25.2395 10.5392 25.3431 10.3742 25.3917 10.19C25.4404 10.0058 25.4318 9.81109 25.3672 9.63187L25.3408 9.55569C24.8125 8.07921 24.0215 6.71048 23.0059 5.51566L22.9531 5.45413C22.8299 5.30926 22.6657 5.20513 22.4821 5.15544C22.2986 5.10576 22.1043 5.11286 21.9248 5.17581L19.543 6.02249C18.6641 5.30179 17.6826 4.73343 16.6221 4.33499L16.1621 1.84476C16.1274 1.65738 16.0365 1.485 15.9015 1.35051C15.7665 1.21603 15.5938 1.1258 15.4063 1.09183L15.3272 1.07718C13.8008 0.801788 12.1953 0.801788 10.669 1.07718L10.5898 1.09183C10.4023 1.1258 10.2296 1.21603 10.0946 1.35051C9.95959 1.485 9.86869 1.65738 9.83399 1.84476L9.3711 4.34671C8.31901 4.74523 7.33926 5.31329 6.47071 6.02835L4.07129 5.17581C3.8919 5.11236 3.69744 5.105 3.51376 5.15472C3.33008 5.20443 3.16588 5.30886 3.04297 5.45413L2.99024 5.51566C1.97583 6.71133 1.1849 8.07983 0.655279 9.55569L0.628912 9.63187C0.497076 9.99808 0.605475 10.4082 0.901373 10.6631L2.84376 12.3213C2.75294 12.8721 2.70899 13.4346 2.70899 13.9942C2.70899 14.5567 2.75294 15.1192 2.84376 15.667L0.901373 17.3252C0.756634 17.4491 0.653042 17.6142 0.604373 17.7984C0.555704 17.9826 0.564263 18.1772 0.628912 18.3565L0.655279 18.4326C1.18555 19.9092 1.97071 21.2715 2.99024 22.4727L3.04297 22.5342C3.16618 22.6791 3.33039 22.7832 3.51396 22.8329C3.69753 22.8826 3.89184 22.8755 4.07129 22.8125L6.47071 21.96C7.34376 22.6778 8.31934 23.2461 9.3711 23.6416L9.83399 26.1436C9.86869 26.331 9.95959 26.5033 10.0946 26.6378C10.2296 26.7723 10.4023 26.8625 10.5898 26.8965L10.669 26.9112C12.2093 27.188 13.7868 27.188 15.3272 26.9112L15.4063 26.8965C15.5938 26.8625 15.7665 26.7723 15.9015 26.6378C16.0365 26.5033 16.1274 26.331 16.1621 26.1436L16.6221 23.6534C17.6822 23.256 18.6692 22.6857 19.543 21.9659L21.9248 22.8125C22.1042 22.876 22.2987 22.8833 22.4823 22.8336C22.666 22.7839 22.8302 22.6795 22.9531 22.5342L23.0059 22.4727C24.0254 21.2686 24.8106 19.9092 25.3408 18.4326L25.3672 18.3565C25.499 17.9961 25.3906 17.586 25.0947 17.3311ZM21.0957 12.6494C21.1689 13.0918 21.207 13.5459 21.207 14C21.207 14.4541 21.1689 14.9082 21.0957 15.3506L20.9023 16.5254L23.0908 18.3975C22.7591 19.1618 22.3403 19.8853 21.8428 20.5537L19.124 19.5899L18.2041 20.3457C17.5039 20.92 16.7246 21.3711 15.8809 21.6875L14.7647 22.1065L14.2402 24.9483C13.4128 25.042 12.5774 25.042 11.75 24.9483L11.2256 22.1006L10.1182 21.6758C9.28321 21.3594 8.50684 20.9082 7.81251 20.3369L6.89258 19.5782L4.15626 20.5508C3.65821 19.8799 3.24219 19.1563 2.90821 18.3946L5.12012 16.5049L4.92969 15.333C4.85938 14.8965 4.8213 14.4453 4.8213 14C4.8213 13.5518 4.85645 13.1035 4.92969 12.667L5.12012 11.4951L2.90821 9.6055C3.23926 8.84085 3.65821 8.12015 4.15626 7.44925L6.89258 8.42191L7.81251 7.66312C8.50684 7.09183 9.28321 6.64066 10.1182 6.32425L11.2285 5.9053L11.7529 3.05765C12.5762 2.9639 13.417 2.9639 14.2432 3.05765L14.7676 5.89944L15.8838 6.31839C16.7246 6.6348 17.5068 7.08597 18.207 7.66019L19.127 8.41605L21.8457 7.45218C22.3438 8.12308 22.7598 8.84671 23.0938 9.60843L20.9053 11.4805L21.0957 12.6494ZM13.001 8.55081C10.1533 8.55081 7.84473 10.8594 7.84473 13.7071C7.84473 16.5547 10.1533 18.8633 13.001 18.8633C15.8486 18.8633 18.1572 16.5547 18.1572 13.7071C18.1572 10.8594 15.8486 8.55081 13.001 8.55081ZM15.3213 16.0274C15.017 16.3326 14.6553 16.5746 14.2571 16.7395C13.8589 16.9044 13.432 16.989 13.001 16.9883C12.125 16.9883 11.3018 16.6455 10.6807 16.0274C10.3755 15.723 10.1334 15.3614 9.96853 14.9632C9.80361 14.565 9.71906 14.1381 9.71973 13.7071C9.71973 12.8311 10.0625 12.0078 10.6807 11.3867C11.3018 10.7657 12.125 10.4258 13.001 10.4258C13.877 10.4258 14.7002 10.7657 15.3213 11.3867C15.6265 11.6911 15.8685 12.0528 16.0334 12.451C16.1983 12.8492 16.2829 13.2761 16.2822 13.7071C16.2822 14.583 15.9395 15.4063 15.3213 16.0274Z" fill="#FDB533"/>
</svg>
