<svg width="40" height="40" viewBox="0 0 40 40" fill="none" xmlns="http://www.w3.org/2000/svg">
<path d="M20 0C8.95275 0 0 8.74396 0 19.5336C0 30.3232 8.95275 39.0671 20 39.0671C31.0472 39.0671 40 30.3232 40 19.5336C40 8.74821 31.0472 0 20 0ZM28.5826 16.3652C28.5913 16.5438 28.5957 16.7224 28.5957 16.9053C28.5957 22.4043 24.3066 28.7496 16.4685 28.7496C14.0605 28.7496 11.8223 28.0606 9.9325 26.8783C10.2678 26.9166 10.6074 26.9379 10.9471 26.9379C12.9458 26.9379 14.7834 26.2702 16.2421 25.1559C14.3784 25.1219 12.8021 23.9183 12.2578 22.2639C12.519 22.3107 12.7847 22.3405 13.059 22.3405C13.4465 22.3405 13.8254 22.2894 14.1824 22.1959C12.2317 21.8131 10.7642 20.129 10.7642 18.1131C10.7642 18.0961 10.7642 18.0791 10.7642 18.0578C11.339 18.3683 11.9965 18.5596 12.6932 18.5767C11.548 17.8324 10.7947 16.5565 10.7947 15.1105C10.7947 14.3493 11.0081 13.6348 11.3738 13.0181C13.477 15.5358 16.6166 17.1945 20.1611 17.3688C20.0871 17.0626 20.0523 16.7479 20.0523 16.4204C20.0523 14.1239 21.9595 12.2569 24.3153 12.2569C25.5432 12.2569 26.6492 12.7629 27.4287 13.571C28.3997 13.3839 29.3098 13.0394 30.1328 12.5588C29.8149 13.5285 29.14 14.345 28.2604 14.8596C29.1226 14.7576 29.9456 14.5364 30.7076 14.2047C30.1372 15.0468 29.4143 15.7783 28.5826 16.3652Z" fill="#FDB533"/>
</svg>
