<svg width="13" height="13" viewBox="0 0 13 13" fill="none" xmlns="http://www.w3.org/2000/svg">
<path d="M6.5 9.34375C6.37948 9.34375 6.26166 9.37949 6.16145 9.44645C6.06124 9.51341 5.98313 9.60858 5.93701 9.71993C5.89089 9.83128 5.87882 9.9538 5.90233 10.072C5.92585 10.1902 5.98388 10.2988 6.06911 10.384C6.15433 10.4692 6.26291 10.5273 6.38112 10.5508C6.49932 10.5743 6.62185 10.5622 6.7332 10.5161C6.84455 10.47 6.93972 10.3919 7.00668 10.2917C7.07364 10.1915 7.10938 10.0736 7.10938 9.95312C7.10938 9.79151 7.04517 9.63651 6.93089 9.52223C6.81661 9.40795 6.66162 9.34375 6.5 9.34375Z" fill="#FDB533"/>
<path d="M6.09375 4.875H6.90625V8.53125H6.09375V4.875Z" fill="#FDB533"/>
<path d="M11.7811 12.1874H1.21859C1.14882 12.1874 1.08024 12.1694 1.01944 12.1352C0.95865 12.101 0.907695 12.0516 0.871489 11.992C0.835283 11.9324 0.815045 11.8644 0.812725 11.7947C0.810405 11.725 0.826081 11.6558 0.858244 11.5939L6.13949 1.43765C6.17381 1.37173 6.22555 1.31649 6.28909 1.27793C6.35262 1.23938 6.42552 1.21899 6.49984 1.21899C6.57415 1.21899 6.64705 1.23938 6.71058 1.27793C6.77412 1.31649 6.82586 1.37173 6.86018 1.43765L12.1414 11.5939C12.1736 11.6558 12.1893 11.725 12.1869 11.7947C12.1846 11.8644 12.1644 11.9324 12.1282 11.992C12.092 12.0516 12.041 12.101 11.9802 12.1352C11.9194 12.1694 11.8509 12.1874 11.7811 12.1874ZM1.8889 11.3749H11.1108L11.1112 11.3737L6.50065 2.50649H6.49902L1.88809 11.3737L1.8889 11.3749Z" fill="#FDB533"/>
</svg>
