<svg width="40" height="40" viewBox="0 0 40 40" fill="none" xmlns="http://www.w3.org/2000/svg">
<path d="M20 0C8.95276 0 0 8.74396 0 19.5336C0 30.3232 8.95276 39.0671 20 39.0671C31.0473 39.0671 40 30.3232 40 19.5336C40 8.74821 31.0429 0 20 0ZM29.3447 20.3459C29.3447 21.8344 29.1574 23.3229 29.1574 23.3229C29.1574 23.3229 28.9745 24.5903 28.4085 25.1474C27.6943 25.8789 26.8887 25.8831 26.523 25.9257C23.8885 26.1128 19.9303 26.117 19.9303 26.117C19.9303 26.117 15.0359 26.0745 13.5293 25.9342C13.1113 25.8576 12.1707 25.8789 11.4522 25.1474C10.8861 24.5903 10.7032 23.3229 10.7032 23.3229C10.7032 23.3229 10.516 21.8344 10.516 20.3459V18.9509C10.516 17.4624 10.7032 15.9739 10.7032 15.9739C10.7032 15.9739 10.8861 14.7065 11.4522 14.1494C12.1663 13.4179 12.9719 13.4136 13.3377 13.3711C15.9721 13.184 19.926 13.184 19.926 13.184H19.9347C19.9347 13.184 23.8885 13.184 26.523 13.3711C26.8931 13.4136 27.6943 13.4179 28.4085 14.1494C28.9745 14.7065 29.1574 15.9739 29.1574 15.9739C29.1574 15.9739 29.3447 17.4624 29.3447 18.9509V20.3459Z" fill="#FDB533"/>
<path d="M17.9883 22.0385L23.0743 19.4612L17.9883 16.8712V22.0385Z" fill="#FDB533"/>
</svg>
