<svg width="12" height="15" viewBox="0 0 12 15" fill="none" xmlns="http://www.w3.org/2000/svg">
<path d="M8 0.327637H4V1.66097H8V0.327637ZM5.33333 8.9943H6.66667V4.9943H5.33333V8.9943ZM10.6867 4.58764L11.6333 3.64097C11.3467 3.30097 11.0333 2.98097 10.6933 2.70097L9.74667 3.64764C8.71333 2.82097 7.41333 2.32764 6 2.32764C2.68667 2.32764 0 5.0143 0 8.32764C0 11.641 2.68 14.3276 6 14.3276C9.32 14.3276 12 11.641 12 8.32764C12 6.9143 11.5067 5.6143 10.6867 4.58764ZM6 12.9943C3.42 12.9943 1.33333 10.9076 1.33333 8.32764C1.33333 5.74764 3.42 3.66097 6 3.66097C8.58 3.66097 10.6667 5.74764 10.6667 8.32764C10.6667 10.9076 8.58 12.9943 6 12.9943Z" fill="white"/>
</svg>
