<svg width="20" height="21" viewBox="0 0 20 21" fill="none" xmlns="http://www.w3.org/2000/svg">
<rect width="20" height="21" fill="#24262D"/>
<g clip-path="url(#clip0)">
<rect width="1400" height="916" transform="translate(-864 -127.339)" fill="#16171B"/>
<rect x="-644" y="-71.3389" width="1179" height="164" fill="#16171B"/>
<path d="M-18 -9.93887C-18 -12.1791 -18 -13.2992 -17.564 -14.1548C-17.1805 -14.9075 -16.5686 -15.5194 -15.816 -15.9029C-14.9603 -16.3389 -13.8402 -16.3389 -11.6 -16.3389H75.6C77.8402 -16.3389 78.9603 -16.3389 79.816 -15.9029C80.5686 -15.5194 81.1805 -14.9075 81.564 -14.1548C82 -13.2992 82 -12.1791 82 -9.93887V31.2611C82 33.5013 82 34.6214 81.564 35.4771C81.1805 36.2297 80.5686 36.8417 79.816 37.2252C78.9603 37.6611 77.8402 37.6611 75.6 37.6611H-11.6C-13.8402 37.6611 -14.9603 37.6611 -15.816 37.2252C-16.5686 36.8417 -17.1805 36.2297 -17.564 35.4771C-18 34.6214 -18 33.5013 -18 31.2611V-9.93887Z" fill="white"/>
<path d="M11 14.6611C11 15.2134 10.5523 15.6611 10 15.6611C9.44772 15.6611 9 15.2134 9 14.6611V9.66113C9 9.10885 9.44772 8.66113 10 8.66113C10.5523 8.66113 11 9.10885 11 9.66113V14.6611Z" fill="black"/>
<path d="M11 6.66113C11 7.21342 10.5523 7.66113 10 7.66113C9.44772 7.66113 9 7.21342 9 6.66113C9 6.10885 9.44772 5.66113 10 5.66113C10.5523 5.66113 11 6.10885 11 6.66113Z" fill="black"/>
<path d="M2.92944 3.59057C-0.976479 7.49649 -0.976479 13.8258 2.92944 17.7317C6.83535 21.6376 13.1646 21.6376 17.0706 17.7317C20.9765 13.8258 20.9765 7.49649 17.0706 3.59057C13.1646 -0.315346 6.83535 -0.315346 2.92944 3.59057ZM15.7021 16.3632C12.5517 19.5136 7.44832 19.5136 4.29793 16.3632C1.14754 13.2128 1.14754 8.10946 4.29793 4.95907C7.44832 1.80867 12.5517 1.80867 15.7021 4.95906C18.8525 8.10946 18.8525 13.2128 15.7021 16.3632Z" fill="#0F2447"/>
</g>
<defs>
<clipPath id="clip0">
<rect width="1400" height="916" fill="white" transform="translate(-864 -127.339)"/>
</clipPath>
</defs>
</svg>
