<svg width="13" height="13" viewBox="0 0 13 13" fill="none" xmlns="http://www.w3.org/2000/svg">
<path d="M12 10.6611V11.3278C12 12.0611 11.4 12.6611 10.6667 12.6611H1.33333C0.593333 12.6611 0 12.0611 0 11.3278V1.99447C0 1.26113 0.593333 0.661133 1.33333 0.661133H10.6667C11.4 0.661133 12 1.26113 12 1.99447V2.66113H6C5.26 2.66113 4.66667 3.26113 4.66667 3.99447V9.3278C4.66667 10.0611 5.26 10.6611 6 10.6611H12ZM6 9.3278H12.6667V3.99447H6V9.3278ZM8.66667 7.66113C8.11333 7.66113 7.66667 7.21447 7.66667 6.66113C7.66667 6.1078 8.11333 5.66113 8.66667 5.66113C9.22 5.66113 9.66667 6.1078 9.66667 6.66113C9.66667 7.21447 9.22 7.66113 8.66667 7.66113Z" fill="#FFC247"/>
</svg>
